<?xml version="1.0" encoding="utf-8"?>
<!-- Generator: Adobe Illustrator 16.0.0, SVG Export Plug-In . SVG Version: 6.00 Build 0)  -->
<!DOCTYPE svg PUBLIC "-//W3C//DTD SVG 1.1//EN" "http://www.w3.org/Graphics/SVG/1.1/DTD/svg11.dtd">
<svg version="1.1" id="Layer_1" xmlns="http://www.w3.org/2000/svg" xmlns:xlink="http://www.w3.org/1999/xlink" x="0px" y="0px"
	 width="280px" height="140px" viewBox="0 0 280 140" style="enable-background:new 0 0 280 140;" xml:space="preserve">
<style type="text/css">
<![CDATA[
	.st0{fill:#292929;}
	.st1{opacity:0.5;}
	.st2{fill:#003366;}
]]>
</style>
<g>
	<path class="st2" d="M87.26,82.19c-1.04-2.06-2.28-4.13-3.72-6.25c-1.04-1.51-2.14-2.99-3.3-4.43c-0.47-0.59-0.27-1.32,0.09-1.68
		c0.36-0.36,0.71-0.73,1.07-1.1c4.96-5.06,10.08-10.28,14.01-15.93c4.18-6.01,6.5-11.7,7.08-17.57c0.06-0.59-0.21-1.21-0.69-1.58
		c-0.31-0.24-0.69-0.36-1.07-0.36c-0.21,0-0.43,0.04-0.63,0.12c-3.81,1.46-7.68,2.56-11.21,3.39c-0.72,0.17-1.3,0.7-1.54,1.35
		c-2.57,7.05-9.15,13.76-16.04,20.79c-0.28,0.26-0.66,0.61-1.29,0.61c-0.63,0-1.01-0.34-1.3-0.61c-6.9-7.03-13.47-13.72-16.04-20.77
		c-0.24-0.64-0.82-1.18-1.54-1.35c-3.53-0.82-7.41-2.02-11.21-3.48c-0.2-0.08-0.42-0.12-0.63-0.12c-0.38,0-0.76,0.12-1.07,0.36
		c-0.49,0.37-0.75,0.97-0.68,1.58c0.58,5.86,2.9,11.63,7.08,17.64c3.93,5.65,9.06,10.87,14.01,15.93
		c9.13,9.31,17.76,18.11,18.51,28.31c0.07,0.92,0.83,1.63,1.76,1.63h10.73c0.48,0,0.95-0.2,1.28-0.55c0.33-0.35,0.51-0.82,0.48-1.3
		c-0.09-1.92-0.37-3.84-0.82-5.77l0,0c-0.01-0.06-0.02-0.11-0.02-0.17c0-0.39,0.3-0.71,0.7-0.71c0.03,0,0.07,0.01,0.1,0.01l0,0
		c8.76,1.28,14.3,3.33,14.31,5.59c0,0,0,0,0,0.01c0,2.12-4.98,5.33-13.07,7.68l0,0c-0.72,0.21-1.25,0.86-1.25,1.63
		c0,0.94,0.77,1.7,1.73,1.7c0.13,0,0.26-0.01,0.38-0.04c10.88-2.52,18.09-6.74,18.09-11.52C111.52,89.54,101.77,84.47,87.26,82.19z"
		/>
	<path class="st2" d="M58.49,76.66c-0.22-0.23-0.66-0.54-1.25-0.54c-0.8,0-1.28,0.52-1.46,0.79c-1.17,1.78-2.19,3.54-3.08,5.28
		c-14.5,2.29-24.23,7.34-24.23,13.01c0,4.78,7.16,9,18.06,11.51c0,0,0.01,0,0.02,0c0.13,0.03,0.26,0.05,0.4,0.05
		c0.96,0,1.73-0.76,1.73-1.7c0-0.77-0.53-1.41-1.24-1.62l-0.01-0.01c-8.09-2.35-13.07-5.56-13.07-7.68c0,0,0,0,0-0.01
		c0.01-2.25,5.53-4.3,14.27-5.58c0.03,0,0.06-0.01,0.09-0.01c0.4,0,0.71,0.33,0.71,0.72c0,0.06-0.01,0.12-0.02,0.17l0.01,0.01
		c-0.45,1.92-0.72,3.84-0.82,5.75c-0.02,0.48,0.15,0.96,0.49,1.31c0.33,0.35,0.8,0.55,1.28,0.55h10.73c0.92,0,1.7-0.72,1.77-1.64
		c0.23-3.14,1.21-6.29,2.99-9.59c0.62-1.14,0.14-2.22-0.22-2.68C63.87,82.47,61.71,80.02,58.49,76.66z"/>
	<path class="st2" d="M68.76,50.16c0.42,0.41,0.9,0.49,1.24,0.49h0c0.33,0,0.81-0.08,1.24-0.49c3.78-3.68,5.82-7.97,6.26-9.16
		c0.06-0.18,0.13-0.37,0.13-0.65c0-0.95-0.79-1.63-1.62-1.63c-0.68,0-2.64,0.2-6,0.2h-0.02c-3.36,0-5.31-0.2-6-0.2
		c-0.83,0-1.62,0.68-1.62,1.63c0,0.28,0.07,0.48,0.13,0.65C62.95,42.19,64.98,46.48,68.76,50.16z"/>
</g>
<g class="st1">
	<path class="st0" d="M227.26,82.19c-1.04-2.06-2.28-4.13-3.72-6.25c-1.04-1.51-2.14-2.99-3.3-4.43c-0.47-0.59-0.27-1.32,0.09-1.68
		c0.36-0.36,0.71-0.73,1.07-1.1c4.96-5.06,10.08-10.28,14.01-15.93c4.18-6.01,6.5-11.7,7.08-17.57c0.06-0.59-0.21-1.21-0.69-1.58
		c-0.31-0.24-0.69-0.36-1.07-0.36c-0.21,0-0.43,0.04-0.63,0.12c-3.81,1.46-7.68,2.56-11.21,3.39c-0.72,0.17-1.3,0.7-1.54,1.35
		c-2.57,7.05-9.15,13.76-16.04,20.79c-0.28,0.26-0.66,0.61-1.29,0.61c-0.63,0-1.01-0.34-1.29-0.61
		c-6.89-7.03-13.47-13.72-16.04-20.77c-0.24-0.64-0.82-1.18-1.54-1.35c-3.54-0.82-7.41-2.02-11.21-3.48
		c-0.2-0.08-0.42-0.12-0.63-0.12c-0.38,0-0.76,0.12-1.07,0.36c-0.49,0.37-0.75,0.97-0.68,1.58c0.58,5.86,2.9,11.63,7.08,17.64
		c3.93,5.65,9.05,10.87,14.01,15.93c9.13,9.31,17.76,18.11,18.52,28.31c0.07,0.92,0.83,1.63,1.76,1.63h10.73
		c0.48,0,0.95-0.2,1.28-0.55c0.33-0.35,0.51-0.82,0.48-1.3c-0.09-1.92-0.37-3.84-0.82-5.77l0,0c-0.01-0.06-0.02-0.11-0.02-0.17
		c0-0.39,0.3-0.71,0.7-0.71c0.03,0,0.07,0.01,0.1,0.01l0,0c8.76,1.28,14.3,3.33,14.31,5.59c0,0,0,0,0,0.01
		c0,2.12-4.98,5.33-13.07,7.68l0,0c-0.72,0.21-1.24,0.86-1.24,1.63c0,0.94,0.77,1.7,1.73,1.7c0.13,0,0.26-0.01,0.38-0.04
		c10.88-2.52,18.09-6.74,18.09-11.52C251.52,89.54,241.77,84.47,227.26,82.19z"/>
	<path class="st0" d="M198.49,76.66c-0.22-0.23-0.66-0.54-1.25-0.54c-0.8,0-1.28,0.52-1.46,0.79c-1.17,1.78-2.19,3.54-3.08,5.28
		c-14.5,2.29-24.23,7.34-24.23,13.01c0,4.78,7.16,9,18.06,11.51c0,0,0.01,0,0.02,0c0.13,0.03,0.26,0.05,0.4,0.05
		c0.96,0,1.73-0.76,1.73-1.7c0-0.77-0.53-1.41-1.24-1.62l-0.01-0.01c-8.09-2.35-13.07-5.56-13.07-7.68c0,0,0,0,0-0.01
		c0.01-2.25,5.53-4.3,14.27-5.58c0.03,0,0.06-0.01,0.09-0.01c0.4,0,0.71,0.33,0.71,0.72c0,0.06-0.01,0.12-0.03,0.17l0.01,0.01
		c-0.45,1.92-0.72,3.84-0.82,5.75c-0.02,0.48,0.15,0.96,0.49,1.31c0.33,0.35,0.8,0.55,1.28,0.55h10.73c0.92,0,1.7-0.72,1.77-1.64
		c0.23-3.14,1.21-6.29,2.99-9.59c0.62-1.14,0.14-2.22-0.22-2.68C203.87,82.47,201.71,80.02,198.49,76.66z"/>
	<path class="st0" d="M208.76,50.16c0.42,0.41,0.9,0.49,1.24,0.49h0c0.33,0,0.81-0.08,1.24-0.49c3.79-3.68,5.82-7.97,6.26-9.16
		c0.06-0.18,0.13-0.37,0.13-0.65c0-0.95-0.79-1.63-1.62-1.63c-0.69,0-2.64,0.2-6,0.2h-0.02c-3.36,0-5.31-0.2-6-0.2
		c-0.83,0-1.62,0.68-1.62,1.63c0,0.28,0.07,0.48,0.13,0.65C202.95,42.19,204.98,46.48,208.76,50.16z"/>
</g>
<g>
</g>
<g>
</g>
<g>
</g>
<g>
</g>
<g>
</g>
<g>
</g>
<g>
</g>
<g>
</g>
<g>
</g>
<g>
</g>
<g>
</g>
<g>
</g>
<g>
</g>
<g>
</g>
<g>
</g>
<g>
</g>
<g>
</g>
<g>
</g>
</svg>
